<?xml version="1.0" standalone="no"?>
<!DOCTYPE svg PUBLIC "-//W3C//DTD SVG 20010904//EN"
 "http://www.w3.org/TR/2001/REC-SVG-20010904/DTD/svg10.dtd">
<svg version="1.0" xmlns="http://www.w3.org/2000/svg"
 width="482.000000pt" height="398.000000pt" viewBox="0 0 482.000000 398.000000"
 preserveAspectRatio="xMidYMid meet">

<g transform="translate(0.000000,398.000000) scale(0.100000,-0.100000)"
fill="#000000" stroke="none">
<path d="M0 1990 l0 -1990 2410 0 2410 0 0 1990 0 1990 -2410 0 -2410 0 0
-1990z m2590 1135 l0 -245 -120 0 -120 0 0 -245 0 -245 920 0 920 0 0 -244 0
-245 -47 -7 c-119 -16 -229 -100 -281 -212 -22 -49 -27 -75 -31 -185 l-6 -128
-120 74 -120 73 -118 -73 c-66 -40 -121 -73 -123 -73 -8 0 -4 148 6 249 9 84
33 180 65 264 7 16 -51 17 -1139 17 l-1146 0 0 -225 0 -224 -101 -60 c-113
-67 -248 -120 -326 -128 l-53 -6 0 567 0 566 115 0 115 0 0 245 0 245 -120 0
-120 0 0 245 0 245 975 0 975 0 0 -245z m-1286 -1915 c143 -87 274 -140 413
-166 180 -33 371 18 626 168 l67 40 73 -43 c171 -102 328 -160 477 -174 150
-15 377 62 609 207 16 9 29 5 82 -29 140 -88 271 -141 422 -169 l97 -18 0
-214 0 -214 -86 7 c-106 9 -279 53 -393 101 -47 20 -95 37 -106 37 -11 0 -59
-17 -106 -37 -48 -20 -140 -51 -205 -68 -110 -29 -131 -32 -274 -32 -127 0
-172 4 -249 23 -94 23 -207 62 -294 101 l-47 21 -48 -21 c-89 -41 -200 -78
-299 -101 -80 -19 -125 -23 -248 -23 -136 0 -161 3 -269 32 -65 17 -157 48
-205 68 -47 20 -95 37 -106 37 -11 0 -60 -17 -109 -38 -110 -46 -285 -91 -393
-100 l-83 -8 0 215 0 214 98 18 c149 28 290 85 422 170 30 20 58 36 62 36 4 0
37 -18 72 -40z"/>
<path d="M1370 2635 l0 -245 245 0 245 0 0 245 0 245 -245 0 -245 0 0 -245z"/>
</g>
</svg>
